HIERARCHY
ROOT SpineBase
{
  OFFSET 0.000000 0.000000 0.000000
  CHANNELS 6 Xposition Yposition Zposition Zrotation Xrotation Yrotation
  JOINT SpineMid
  {
    OFFSET 0.000000 31.626597 0.000000
    CHANNELS 3 Zrotation Xrotation Yrotation
    JOINT SpineShoulder
    {
      OFFSET 0.009606 23.497971 -0.822208
      CHANNELS 3 Zrotation Xrotation Yrotation
      JOINT Neck
      {
        OFFSET 0.033521 7.764746 -0.620525
        CHANNELS 3 Zrotation Xrotation Yrotation
        JOINT Head
        {
          OFFSET 5.505023 12.862875 3.296630
          CHANNELS 3 Zrotation Xrotation Yrotation
          End Site
          {
            OFFSET 0 0 0
          }
        }
      }
      JOINT ShoulderLeft
      {
        OFFSET -10.287956 -2.822634 -11.497604
        CHANNELS 3 Zrotation Xrotation Yrotation
        JOINT ElbowLeft
        {
          OFFSET -7.464534 -23.728911 -7.432309
          CHANNELS 3 Zrotation Xrotation Yrotation
          JOINT WristLeft
          {
            OFFSET 2.432765 -23.593599 -5.486614
            CHANNELS 3 Zrotation Xrotation Yrotation
            JOINT HandLeft
            {
              OFFSET 1.171407 -8.723793 1.648768
              CHANNELS 3 Zrotation Xrotation Yrotation
              JOINT HandTipLeft
              {
                OFFSET 1.110756 -8.844640 0.257802
                CHANNELS 3 Zrotation Xrotation Yrotation
                End Site
                {
                  OFFSET 0 0 0
                }
              }
              JOINT ThumbLeft
              {
                OFFSET 5.149142 2.233598 4.623246
                CHANNELS 3 Zrotation Xrotation Yrotation
                End Site
                {
                  OFFSET 0 0 0
                }
              }
            }
          }
        }
      }
      JOINT ShoulderRight
      {
        OFFSET 11.513225 -4.611223 12.425035
        CHANNELS 3 Zrotation Xrotation Yrotation
        JOINT ElbowRight
        {
          OFFSET 1.990293 -27.792482 1.739575
          CHANNELS 3 Zrotation Xrotation Yrotation
          JOINT WristRight
          {
            OFFSET 0.155210 -24.088536 -1.274943
            CHANNELS 3 Zrotation Xrotation Yrotation
            JOINT HandRight
            {
              OFFSET -0.457604 -7.608299 1.169885
              CHANNELS 3 Zrotation Xrotation Yrotation
              JOINT HandTipRight
              {
                OFFSET -0.040242 -6.160266 -0.353147
                CHANNELS 3 Zrotation Xrotation Yrotation
                End Site
                {
                  OFFSET 0 0 0
                }
              }
              JOINT ThumbRight
              {
                OFFSET 1.664863 0.677691 -3.045465
                CHANNELS 3 Zrotation Xrotation Yrotation
                End Site
                {
                  OFFSET 0 0 0
                }
              }
            }
          }
        }
      }
    }
  }
  JOINT HipLeft
  {
    OFFSET -4.808295 1.655671 -7.626950
    CHANNELS 3 Zrotation Xrotation Yrotation
    JOINT KneeLeft
    {
      OFFSET -12.853694 -35.749078 -4.109124
      CHANNELS 3 Zrotation Xrotation Yrotation
      JOINT AnkleLeft
      {
        OFFSET -9.729224 -37.466792 4.966072
        CHANNELS 3 Zrotation Xrotation Yrotation
        JOINT FootLeft
        {
          OFFSET 0.902283 -7.964681 -6.826488
          CHANNELS 3 Zrotation Xrotation Yrotation
          End Site
          {
            OFFSET 0 0 0
          }
        }
      }
    }
  }
  JOINT HipRight
  {
    OFFSET 5.414408 0.009313 0.661457
    CHANNELS 3 Zrotation Xrotation Yrotation
    JOINT KneeRight
    {
      OFFSET -7.004006 -39.734889 3.971688
      CHANNELS 3 Zrotation Xrotation Yrotation
      JOINT AnkleRight
      {
        OFFSET -7.610109 -35.304455 10.651856
        CHANNELS 3 Zrotation Xrotation Yrotation
        JOINT FootRight
        {
          OFFSET 1.983298 -8.503784 -4.289136
          CHANNELS 3 Zrotation Xrotation Yrotation
          End Site
          {
            OFFSET 0 0 0
          }
        }
      }
    }
  }
}
MOTION
Frames: 6
Frame Time: 0.033333
-32.817435 89.699182 347.940748 -2.922399 0.744694 -49.255618 -0.075609 -0.193108 49.162038 0.058379 -0.089317 -0.139807 0.223958 -3.885929 2.288936 0.000000 0.000000 0.000000 -63.343654 62.448859 32.639743 -169.402591 13.364022 71.751465 -0.126548 19.645908 23.492447 29.170203 -7.455416 -41.814377 0.000000 0.000000 0.000000 0.000000 0.000000 0.000000 75.233856 -29.943405 24.012830 148.945678 -3.318778 99.829678 -13.138654 -53.694908 -77.630493 -43.553143 48.883669 107.342415 0.000000 0.000000 0.000000 0.000000 0.000000 0.000000 8.205871 2.785143 49.812773 -3.493237 4.472213 -0.799320 9.104214 3.728672 -8.007019 0.000000 0.000000 0.000000 3.554985 6.646679 49.178732 -4.105641 -1.512614 -0.193885 2.462529 7.304464 0.416890 0.000000 0.000000 0.000000
-32.763136 89.780644 347.899932 -2.844291 0.750744 -49.323164 -0.087196 -0.199096 49.231591 0.060540 -0.098402 -0.136840 0.296731 -3.917225 2.265656 0.000000 0.000000 0.000000 -62.761569 62.612473 32.167493 -169.397125 13.399129 72.028417 0.248038 19.417560 23.399083 31.052320 -5.016596 -46.746741 0.000000 0.000000 0.000000 0.000000 0.000000 0.000000 75.329989 -29.780038 23.980681 148.122085 -3.585880 100.100562 -13.123361 -56.799549 -77.659800 -38.772110 52.487860 102.043316 0.000000 0.000000 0.000000 0.000000 0.000000 0.000000 8.190819 2.685194 49.911159 -3.502527 4.493220 -0.812273 10.729947 5.513046 -9.235170 0.000000 0.000000 0.000000 3.458267 6.561302 49.245397 -4.035538 -1.499593 -0.184634 2.356495 6.737894 0.354649 0.000000 0.000000 0.000000
-32.727382 89.842207 347.863383 -2.770846 0.751611 -49.388940 -0.088288 -0.192005 49.299846 0.068477 -0.099419 -0.132618 0.245900 -3.972687 2.271147 0.000000 0.000000 0.000000 -62.178612 62.834755 31.689768 -169.051795 14.006300 71.450379 -1.667683 17.018436 27.010815 28.351876 -5.899288 -43.161073 0.000000 0.000000 0.000000 0.000000 0.000000 0.000000 75.636890 -29.849638 24.193965 147.277870 -4.437646 99.828894 -7.571113 -58.875920 -71.042868 -25.221982 55.557474 88.778276 0.000000 0.000000 0.000000 0.000000 0.000000 0.000000 8.158183 2.607954 49.997967 -3.482094 4.539215 -0.828394 7.100143 3.242100 -6.356005 0.000000 0.000000 0.000000 3.391068 6.514394 49.312071 -4.004769 -1.489578 -0.178323 1.895979 5.690403 0.375718 0.000000 0.000000 0.000000
-32.701461 89.888845 347.815615 -2.728706 0.740085 -49.485360 -0.093760 -0.190415 49.397258 0.065031 -0.096293 -0.131013 0.375592 -3.939279 2.221126 0.000000 0.000000 0.000000 -61.502494 63.013824 31.173929 -168.272150 14.465666 71.372397 -2.814769 17.782148 27.335344 25.230752 -5.990891 -38.740150 0.000000 0.000000 0.000000 0.000000 0.000000 0.000000 75.886108 -29.939674 24.371381 146.615648 -5.496029 99.121745 0.597073 -60.761628 -61.640135 -16.289247 54.658978 77.409032 0.000000 0.000000 0.000000 0.000000 0.000000 0.000000 8.147364 2.561298 50.115010 -3.443836 4.624826 -0.854426 4.842067 1.698292 -4.602861 0.000000 0.000000 0.000000 3.353122 6.507300 49.410481 -3.979828 -1.461625 -0.172911 1.009381 4.088884 0.486129 0.000000 0.000000 0.000000
-32.668546 89.934355 347.765769 -2.691479 0.724613 -49.518310 -0.093429 -0.183999 49.431267 0.053509 -0.092826 -0.129964 0.470640 -3.825344 2.148735 0.000000 0.000000 0.000000 -60.813472 63.100784 30.634855 -166.863203 14.982642 71.373128 -4.556775 18.649380 28.026151 19.051669 -7.410999 -29.765360 0.000000 0.000000 0.000000 0.000000 0.000000 0.000000 75.192302 -29.852762 24.018297 146.670397 -5.755336 99.134870 -4.234069 -61.648462 -68.439122 -23.439166 55.922255 85.452709 0.000000 0.000000 0.000000 0.000000 0.000000 0.000000 8.113720 2.541713 50.152723 -3.434027 4.657304 -0.863639 6.204934 2.677778 -5.655982 0.000000 0.000000 0.000000 3.333249 6.490739 49.446761 -3.938891 -1.413603 -0.165845 0.600859 2.941501 0.420505 0.000000 0.000000 0.000000
-32.650270 89.979412 347.707140 -2.665954 0.730610 -49.427260 -0.091023 -0.171916 49.341678 0.049184 -0.082618 -0.128511 0.549391 -3.803653 2.104555 0.000000 0.000000 0.000000 -59.948677 63.046225 29.914838 -165.346122 15.271883 71.696671 -6.781763 19.368282 29.105743 18.100798 -6.818717 -28.601688 0.000000 0.000000 0.000000 0.000000 0.000000 0.000000 75.112270 -30.142795 24.189502 146.980528 -5.776151 99.356401 -19.409657 -61.256174 -87.440456 -52.476055 52.305674 115.285766 0.000000 0.000000 0.000000 0.000000 0.000000 0.000000 8.118200 2.536163 50.056097 -3.466492 4.661440 -0.859354 7.640738 4.048943 -6.740929 0.000000 0.000000 0.000000 3.388359 6.434257 49.365077 -3.947327 -1.361849 -0.171985 0.214671 1.581102 0.306581 0.000000 0.000000 0.000000
